<svg xmlns="http://www.w3.org/2000/svg" width="16.364" height="15.584" viewBox="0 0 16.364 15.584">
    <path data-name="Combined Shape" d="M3.506 15.584A3.511 3.511 0 0 1 0 12.078V5.455h16.364v6.623a3.511 3.511 0 0 1-3.506 3.506zm-.027-3.754a.418.418 0 0 0 .417.417h4.286a.417.417 0 0 0 0-.833H3.9a.417.417 0 0 0-.421.416zm0-3.75a.418.418 0 0 0 .421.42h7.462a.417.417 0 1 0 0-.833H3.9a.417.417 0 0 0-.421.412zM0 4.675V1.949A1.168 1.168 0 0 1 1.169.779h1.948v1.17a1.169 1.169 0 0 0 2.338 0V.779h5.454v1.17a1.169 1.169 0 0 0 2.338 0V.779h1.948a1.169 1.169 0 0 1 1.169 1.169v2.727zm11.688-2.726V.39a.39.39 0 1 1 .779 0v1.559a.39.39 0 0 1-.779 0zm-7.792 0V.39a.39.39 0 1 1 .779 0v1.559a.39.39 0 0 1-.779 0z" style="fill:#5e6c84"/>
</svg>
