<svg data-name="Icons/Dashboard" xmlns="http://www.w3.org/2000/svg" width="16.667" height="16.667" viewBox="0 0 16.667 16.667">
    <path data-name="Combined Shape" d="M10.715 16.667a1.192 1.192 0 0 1-1.191-1.191v-4.761a1.191 1.191 0 0 1 1.191-1.191h4.762a1.192 1.192 0 0 1 1.191 1.191v4.762a1.193 1.193 0 0 1-1.191 1.191zm-9.524 0A1.193 1.193 0 0 1 0 15.476v-4.761a1.192 1.192 0 0 1 1.191-1.191h4.762a1.191 1.191 0 0 1 1.191 1.191v4.762a1.192 1.192 0 0 1-1.191 1.191zm9.524-9.524a1.191 1.191 0 0 1-1.191-1.19V1.191A1.192 1.192 0 0 1 10.715 0h4.762a1.193 1.193 0 0 1 1.191 1.191v4.762a1.192 1.192 0 0 1-1.191 1.191zm-9.524 0A1.192 1.192 0 0 1 0 5.953V1.191A1.193 1.193 0 0 1 1.191 0h4.762a1.192 1.192 0 0 1 1.19 1.191v4.762a1.191 1.191 0 0 1-1.19 1.19z" style="fill:#5e6c84"/>
</svg>
