<svg xmlns="http://www.w3.org/2000/svg" width="27.2" height="33.527" viewBox="0 0 27.2 33.527">
    <path d="m3.386 23.249.309-4.849-2.671-4.7A7.806 7.806 0 0 1 3.818 3.126a7.574 7.574 0 0 1 10.427 2.835l2.671 4.693 4.3 2.155a.709.709 0 0 1 .04 1.241L4.426 23.9a.683.683 0 0 1-.346.1.7.7 0 0 1-.694-.751zm6.915-.93 6.145-3.6a3.969 3.969 0 0 1-2.008 3.671 4.084 4.084 0 0 1-2.055.567 3.617 3.617 0 0 1-2.083-.638zM0 4.071A3.961 3.961 0 0 1 2.019.567 4.084 4.084 0 0 1 4.074 0 3.646 3.646 0 0 1 6.02.548a10.742 10.742 0 0 0-3.29 1.265A10.858 10.858 0 0 0 0 4.072z" transform="translate(0 9.527)" style="fill:#5e6c84" data-name="Icons/Bell"/>
    <g transform="translate(8.2 2)" style="fill:#2d3394;stroke:#fff;stroke-miterlimit:10;stroke-width:2px">
        <circle cx="8.5" cy="8.5" r="8.5" style="stroke:none"/>
        <circle cx="8.5" cy="8.5" r="9.5" style="fill:none"/>
    </g>
    <text data-name="6" transform="translate(16.2 14)" style="fill:#fff;font-size:12px;font-family:Rubik-Medium,Rubik;font-weight:500"><tspan x="-3.762" y="0">6</tspan></text>
</svg>
