<svg xmlns="http://www.w3.org/2000/svg" width="20" height="24" viewBox="0 0 20 24">
    <path data-name="Path 2159" d="M33.2 0H19.7v24h20V6.2zm3.15 5.654h-2.576V3.2zM21.661 22.128V1.872h10.151V6.59a.959.959 0 0 0 .981.936h4.944v14.6z" style="fill:#5e6c84" transform="translate(-19.699)"/>
    <path data-name="Rectangle 2209" transform="translate(3.769 18.697)" style="fill:#5e6c84" d="M0 0h12.462v1.127H0z"/>
    <path data-name="Rectangle 2210" transform="translate(4.678 6.914)" style="fill:#5e6c84" d="M0 0h5.754v1.127H0z"/>
    <path data-name="Path 2160" d="M61.537 78.062h.791l-3.057 2.414-2.39-1.887-5.281 4.172 1.009.8 4.275-3.376 2.39 1.887 4.066-3.211v.623h1.427v-2.549h-3.23z" transform="translate(-48.002 -66.922)" style="fill:#5e6c84"/>
    <path data-name="Rectangle 2211" transform="translate(4.678 4.176)" style="fill:#5e6c84" d="M0 0h5.754v1.127H0z"/>
</svg>
