<svg xmlns="http://www.w3.org/2000/svg" width="7.529" height="13.201" viewBox="0 0 7.529 13.201">
    <path data-name="Path 1866" d="M12.144 7.529h.284a1.012 1.012 0 0 0 .588-.377 3.555 3.555 0 0 0 .186-.37v-.336a1.543 1.543 0 0 0-.481-.713Q10.1 3.119 7.485.5a1.606 1.606 0 0 0-.73-.5h-.309a1.6 1.6 0 0 0-.73.5Q3.1 3.119.481 5.733A1.547 1.547 0 0 0 0 6.446v.335a3.453 3.453 0 0 0 .186.37.994.994 0 0 0 .588.377h.309a1.645 1.645 0 0 0 .738-.511q2.333-2.34 4.672-4.675c.035-.035.071-.068.119-.113.044.051.075.092.111.129l4.717 4.721a1.406 1.406 0 0 0 .704.45z" transform="rotate(90 3.764 3.765)" style="fill:#2d3394"/>
</svg>
