<svg data-name="Icons/Dashboard" xmlns="http://www.w3.org/2000/svg" width="24" height="24" viewBox="0 0 24 24">
    <path data-name="Combined Shape" d="M10.216 24a.71.71 0 0 1-.691-.561l-.48-2.28a9.658 9.658 0 0 1-1.435-.594l-1.95 1.273a.709.709 0 0 1-.885-.092l-2.521-2.522a.7.7 0 0 1-.092-.885l1.273-1.952a9.627 9.627 0 0 1-.595-1.435l-2.28-.48a.71.71 0 0 1-.56-.689v-3.567a.71.71 0 0 1 .56-.691l2.28-.48a9.849 9.849 0 0 1 .595-1.435L2.162 5.661a.709.709 0 0 1 .092-.885l2.522-2.522a.7.7 0 0 1 .885-.092l1.95 1.273a9.742 9.742 0 0 1 1.435-.595L9.525.56a.71.71 0 0 1 .691-.56h3.566a.71.71 0 0 1 .691.56l.48 2.28a9.732 9.732 0 0 1 1.435.595l1.952-1.273a.7.7 0 0 1 .885.092l2.522 2.522a.711.711 0 0 1 .092.885l-1.273 1.95a9.611 9.611 0 0 1 .594 1.435l2.28.48a.71.71 0 0 1 .561.691v3.566a.71.71 0 0 1-.561.691l-2.28.48a9.545 9.545 0 0 1-.594 1.435l1.273 1.952a.7.7 0 0 1-.092.885l-2.522 2.522a.709.709 0 0 1-.885.092l-1.952-1.273a9.5 9.5 0 0 1-1.435.594l-.48 2.28a.71.71 0 0 1-.691.561zM7.059 12A4.941 4.941 0 1 0 12 7.059 4.946 4.946 0 0 0 7.059 12zm1.411 0A3.53 3.53 0 1 1 12 15.53 3.529 3.529 0 0 1 8.47 12z" style="fill:#5e6c84"/>
</svg>
