<svg xmlns="http://www.w3.org/2000/svg" width="22.108" height="22.108" viewBox="0 0 22.108 22.108">
    <path data-name="Path 6231" d="M14.732 11.4a.4.4 0 0 1 .183.1l5.629 5.629 1.019-1.018-5.629-5.629a.4.4 0 0 1-.1-.183l-.359-1.409-2.348-1.343-1.15 1.153 1.343 2.35zm0 0" transform="translate(-11.827 -7.45)" style="fill:#5e6c84"/>
    <path data-name="Path 6232" d="m8.286 16.792 8.932-8.933a.394.394 0 0 1 .374-.1 3.918 3.918 0 0 0 4.89-3.816c0-.074 0-.148-.007-.224L20.4 5.793a.394.394 0 0 1-.4.1L17.632 5.1a.393.393 0 0 1-.249-.249l-.788-2.363a.393.393 0 0 1 .1-.4l2.073-2.08a3.919 3.919 0 0 0-4.04 4.883.394.394 0 0 1-.1.374L5.692 14.2a.4.4 0 0 1-.374.1 3.88 3.88 0 0 0-.952-.123 3.965 3.965 0 1 0 3.816 2.987.394.394 0 0 1 .104-.372zm-2.961 2.9H3.407l-.945-1.575.945-1.576h1.917l.945 1.576zm1.52-4.611 8.664-8.664.557.557L7.4 15.639zm0 0" transform="translate(-.375 -.001)" style="fill:#5e6c84"/>
    <path data-name="Path 6233" d="M1459.5 1458.216a2.388 2.388 0 0 0 3.076-3.076zm0 0" transform="translate(-1440.622 -1436.314)" style="fill:#5e6c84"/>
    <path data-name="Path 6234" d="m879.547 871.732-4.423-4.425a1.229 1.229 0 0 1-1.733-1.73l-.626-.627-3.381 3.382.63.63a1.229 1.229 0 0 1 1.733 1.73l4.419 4.422c.048.048.1.093.151.136l3.367-3.367c-.044-.052-.084-.103-.137-.151zm-2.335 1.6-3.938-3.938.557-.557 3.939 3.938zm0 0" transform="translate(-858.14 -853.759)" style="fill:#5e6c84"/>
</svg>
